<?xml version="1.0" encoding="iso-8859-1"?>
<!-- Generator: Adobe Illustrator 19.0.0, SVG Export Plug-In . SVG Version: 6.00 Build 0)  -->
<svg version="1.1" id="Layer_1" xmlns="http://www.w3.org/2000/svg" xmlns:xlink="http://www.w3.org/1999/xlink" x="0px" y="0px"
	 viewBox="0 0 512 512" style="enable-background:new 0 0 512 512;" xml:space="preserve">
<path style="fill:#EEBF00;" d="M299.925,238.038l25.3-18.509l8.959-79.116c0-19.3-15.646-34.945-34.945-34.945h-9.953
	c-9.364,0-16.955-7.59-16.955-16.955V72.765l4.392-3.133c4.714-3.363,7.512-8.796,7.512-14.588V18.442
	C284.236,8.256,275.979,0,265.795,0h-20.287c-10.184,0-18.442,8.256-18.442,18.442v36.603c0,5.791,2.798,11.225,7.512,14.588
	l4.391,3.133v15.748c0,9.363-7.59,16.955-16.955,16.955h-9.953c-19.3,0-34.945,15.646-34.945,34.945l1.941,17.139l7.018,61.977
	l21.967,18.509h91.883V238.038z"/>
<path style="opacity:0.14;fill:#664400;enable-background:new    ;" d="M299.939,105.468h-9.953c-9.364,0-16.955-7.59-16.955-16.955
	V72.766l4.392-3.133c4.714-3.363,7.512-8.796,7.512-14.588V18.442C284.935,8.256,276.678,0,266.493,0H253.55
	c10.184,0,18.442,8.256,18.442,18.442v36.603c0,5.791-2.798,11.225-7.512,14.588l-4.392,3.133v15.748
	c0,9.363,7.59,16.955,16.955,16.955h9.953c19.3,0,34.945,15.646,34.945,34.945l-8.959,79.116l-25.3,18.509h12.943l25.3-18.509
	l8.959-79.116C334.884,121.113,319.238,105.468,299.939,105.468z"/>
<polygon style="fill:#DDB200;" points="297.004,151.492 297.004,208.152 298.444,299.741 281.966,391.329 225.134,391.329 
	208.657,299.741 210.097,208.152 210.097,164.636 "/>
<polygon style="opacity:0.14;fill:#664400;enable-background:new    ;" points="296.127,208.152 296.127,151.492 278.869,154.102 
	278.869,208.152 280.311,299.741 263.832,391.329 281.09,391.329 297.568,299.741 "/>
<g style="opacity:0.25;">
	<path style="fill:#664400;" d="M253.551,399.145c-4.318,0-7.817-3.5-7.817-7.817V251.574c0-4.317,3.499-7.817,7.817-7.817
		s7.817,3.5,7.817,7.817v139.755C261.367,395.646,257.868,399.145,253.551,399.145z"/>
</g>
<rect x="192.112" y="415.175" style="fill:#3E3B43;" width="122.877" height="23.841"/>
<polygon style="fill:#DDB200;" points="192.109,439.011 314.99,439.011 314.99,512 192.109,512 192.109,496.349 "/>
<polygon style="opacity:0.14;fill:#664400;enable-background:new    ;" points="297.334,415.169 297.334,419.596 297.334,492.585 
	192.109,492.585 192.109,496.349 192.109,512 314.99,512 314.99,439.011 314.99,415.169 "/>
<rect x="210.1" y="391.329" style="fill:#494949;" width="86.91" height="23.841"/>
<polygon style="fill:#CCA400;" points="298.795,138.349 297.004,164.636 265.366,164.636 253.55,160.075 240.209,164.636 
	210.097,164.636 208.305,138.349 "/>
<g>
</g>
<g>
</g>
<g>
</g>
<g>
</g>
<g>
</g>
<g>
</g>
<g>
</g>
<g>
</g>
<g>
</g>
<g>
</g>
<g>
</g>
<g>
</g>
<g>
</g>
<g>
</g>
<g>
</g>
</svg>
